<svg id="Layer_1" data-name="Layer 1" xmlns="http://www.w3.org/2000/svg" viewBox="0 0 42.8 41.54"><defs><style>.cls-1{fill:#2d2926;}</style></defs><g id="Group_1641" data-name="Group 1641"><g id="Group_1620" data-name="Group 1620"><g id="Group_1591" data-name="Group 1591"><path id="Path_851" data-name="Path 851" class="cls-1" d="M1.93,18.8v2.79a.4.4,0,0,0,.79,0V18.8a.4.4,0,1,0-.79,0Z" transform="translate(-0.09 0)"/><path id="Path_852" data-name="Path 852" class="cls-1" d="M3.5,19.58v6.88a.39.39,0,0,0,.4.39.43.43,0,0,0,.28-.11,1,1,0,0,0,.11-.28V19.58a.4.4,0,0,0-.79,0Z" transform="translate(-0.09 0)"/><path id="Path_413" data-name="Path 413" class="cls-1" d="M2,23.66a.36.36,0,0,0,.36.37.37.37,0,0,0,.37-.36.36.36,0,0,0-.11-.26.37.37,0,0,0-.52,0A.39.39,0,0,0,2,23.66Z" transform="translate(-0.09 0)"/></g><g id="Group_1590" data-name="Group 1590"><path id="Path_929" data-name="Path 929" class="cls-1" d="M9.86,29.85a4.33,4.33,0,1,0,4.34,4.33A4.34,4.34,0,0,0,9.86,29.85Zm0,7.55a3.22,3.22,0,1,1,3.22-3.22A3.22,3.22,0,0,1,9.86,37.4Z" transform="translate(-0.09 0)"/><path id="Path_930" data-name="Path 930" class="cls-1" d="M16.33,41.54a.57.57,0,0,0,.18,0l2.43-.81h20.8l2.42.81a.47.47,0,0,0,.17,0,.56.56,0,0,0,.53-.38.55.55,0,0,0-.35-.7l-2.16-.72v-.05a4.3,4.3,0,0,0-4.3-3.87H34.51V21.69a2.26,2.26,0,0,0-1.44-2.08L33,19.56l.09-.08a4.33,4.33,0,0,0,1.47-3.24V13.72a4.33,4.33,0,1,0-8.66,0v2.52a4.25,4.25,0,0,0,1.3,3.09l.12.13H14.19V1.79l2.14-.71a.56.56,0,0,0,.35-.7A.55.55,0,0,0,16,0L13.54.84H9.87A4.35,4.35,0,0,0,5.53,5.17V7.66L1.2,6.22V3.91A.56.56,0,0,0,.09,4v6.31A6,6,0,0,0,5.47,16h.07V26.73A2.23,2.23,0,0,0,7.77,29H12a2.24,2.24,0,0,0,2.23-2.24v-.28H25.84v3.08H22.62a4.33,4.33,0,0,0-4.33,4.33v5.89l-2.14.71a.56.56,0,0,0,.18,1.09ZM33.39,21.69v7.83H29.15l.57-3.44,0,0A3.92,3.92,0,0,0,32,22.53a.54.54,0,0,0-.55-.55h-1l.23-1.4h1.63a1.1,1.1,0,0,1,1.12,1.11Zm-6.44-8a3.22,3.22,0,0,1,6.44,0V14H32l0,0a2.45,2.45,0,0,0-3.64,0l0,0H27Zm0,2.52V15.12H28.6a.53.53,0,0,0,.46-.25,1.34,1.34,0,0,1,2.22,0,.53.53,0,0,0,.46.25h1.65v1.12a3.22,3.22,0,0,1-6.44,0Zm0,5.45a1.12,1.12,0,0,1,1.12-1.12h1.44L29.28,22H27ZM14.2,20.57H26.14l-.06.11a2.21,2.21,0,0,0-.24,1V22H14.19ZM6.65,5.17A3.22,3.22,0,0,1,9.86,2h3.22v9.27L13,11.07a5.43,5.43,0,0,0-2.58-1.79L6.65,8ZM6.09,15a4.88,4.88,0,0,1-4.88-4.71h0V7.4L5.93,9h0L10,10.34a4.47,4.47,0,0,1,3.06,4.24v3.2H6.65V15.51A.56.56,0,0,0,6.09,15Zm7,11.77A1.12,1.12,0,0,1,12,27.85H7.77a1.12,1.12,0,0,1-1.12-1.12V18.9h6.43V22H12a3.91,3.91,0,0,0-3.91,3.91.56.56,0,0,0,.56.56h4.47Zm6.38-1.4H9.22l0-.09A2.76,2.76,0,0,1,12,23.09h7.5Zm1.11,0V23.09H30.82l0,.08a2.8,2.8,0,0,1-2.73,2.16Zm8,1.08L28,29.52H27V26.44h1.12l.38,0ZM19.4,33.85a3.24,3.24,0,0,1,3.22-3.22H33.39v5.74a.57.57,0,0,0,.56.56h2.1A3.22,3.22,0,0,1,39.2,39.5l0,.09h-9A3.23,3.23,0,0,1,27,36.37V32.59a.56.56,0,0,0-1.12,0v3.78a4.33,4.33,0,0,0,1.3,3.09l.13.13H19.4Z" transform="translate(-0.09 0)"/></g></g></g></svg>