<svg id="Layer_1" data-name="Layer 1" xmlns="http://www.w3.org/2000/svg" viewBox="0 0 41.54 41.54"><defs><style>.cls-1{fill:#2d2926;}</style></defs><g id="Group_1646" data-name="Group 1646"><g id="Group_1634" data-name="Group 1634"><path id="Path_907" data-name="Path 907" class="cls-1" d="M42.31.18A.63.63,0,0,0,41.65,0l-9.27,3.6a.63.63,0,0,0-.39.65.6.6,0,0,0,.19.37l1.65,1.66-5.21,5.21h0l-1.14,1.13A19.15,19.15,0,0,0,7.27,9.9a1.82,1.82,0,0,1-1,.16l.17-.25a.65.65,0,0,0-.14-.87.61.61,0,0,0-.86.14v0l-.26.38a1.77,1.77,0,0,1-.49-1.19A1.84,1.84,0,0,0,2.74,6.5h0A1.84,1.84,0,0,0,.94,8.4h0a5.54,5.54,0,0,0,2.38,4.38l3.1,14.93L2.58,31.55a.65.65,0,0,0-.19.49.62.62,0,0,0,.51.57l4.93.85L9,34.65l.85,4.92a.67.67,0,0,0,.29.44.62.62,0,0,0,.32.09.6.6,0,0,0,.44-.18L12,38.81h0l2.75-2.75,14.93,3.11a5.5,5.5,0,0,0,4.38,2.37h0A1.85,1.85,0,0,0,35.45,41,1.88,1.88,0,0,0,36,39.75a1.86,1.86,0,0,0-.51-1.32,1.82,1.82,0,0,0-1.28-.58,1.83,1.83,0,0,1-1.2-.48l.37-.25a.63.63,0,0,0,.19-.86.61.61,0,0,0-.84-.19h0l-.27.19a1.88,1.88,0,0,1,.15-1.05A19.11,19.11,0,0,0,29.82,15l6.35-6.34,1.66,1.66a.67.67,0,0,0,.44.18l.12,0a.58.58,0,0,0,.45-.38L42.44.84A.62.62,0,0,0,42.31.18ZM3.72,11.53A4.23,4.23,0,0,1,2.18,8.36a.56.56,0,0,1,.16-.43.66.66,0,0,1,.43-.2.62.62,0,0,1,.63.6,3,3,0,0,0,1,2.19Zm1.76-.38A3.06,3.06,0,0,0,7.78,11,17.9,17.9,0,0,1,26.6,13.54l-.87.87A16.66,16.66,0,0,0,8.28,12.14a4.33,4.33,0,0,1-3.51,0ZM4.28,31.6l2.44-2.44.62,3Zm.45-18.12a5.51,5.51,0,0,0,4.07-.22,15.45,15.45,0,0,1,16.06,2L14.38,25.76l-4.81-.83A.64.64,0,0,0,9,25.1L7.47,26.67Zm3,14.63L9.68,26.2l3.63.63L8.5,31.64Zm6.38,6.83h0l-3,3h0l-.24.23-.63-3.63.07-.07,5.33-5.33.62,3.64Zm15.07-1.26A5.64,5.64,0,0,0,29,37.76L15.82,35l1.56-1.57a.6.6,0,0,0,.18-.54l-.84-4.81L27.2,17.63a15.42,15.42,0,0,1,2,16.06Zm4.94,5.4a.64.64,0,0,1,.43.2.56.56,0,0,1,.16.43.6.6,0,0,1-.18.42.63.63,0,0,1-.45.18A4.3,4.3,0,0,1,31,38.76l1-.69a3,3,0,0,0,2.19,1ZM32.8,24.24A17.83,17.83,0,0,1,31.46,34.7,3.08,3.08,0,0,0,31.34,37l-1,.7a4.29,4.29,0,0,1,0-3.51,16.66,16.66,0,0,0-2.27-17.45l.87-.87a17.87,17.87,0,0,1,3.85,8.37ZM15.63,27.45h0l-6,6-.6-.6L29.14,12.75h0l5.57-5.57.59.6ZM35.44,6.17,33.71,4.45l5.65-2.2ZM38,8.77,36.31,7.05l3.92-3.92Z" transform="translate(-0.94)"/><path id="Path_855" data-name="Path 855" class="cls-1" d="M22.2,26l3.66-3.66a.52.52,0,0,0,0-.73.51.51,0,0,0-.72,0l0,0-3.66,3.66a.52.52,0,0,0,.73.73Z" transform="translate(-0.94)"/><path id="Path_908" data-name="Path 908" class="cls-1" d="M19.66,30.66l5.05-4.88a.5.5,0,0,0,0-.72A.51.51,0,0,0,24,25v0l-5.06,4.87a.52.52,0,0,0,0,.73C19.13,30.86,19.66,30.66,19.66,30.66Z" transform="translate(-0.94)"/><path id="Path_407" data-name="Path 407" class="cls-1" d="M26.4,21.16a.52.52,0,0,0,.73-.73.52.52,0,0,0-.73.73Z" transform="translate(-0.94)"/></g></g></svg>