<?xml version="1.0" encoding="utf-8"?>
<!-- Generator: Adobe Illustrator 24.3.0, SVG Export Plug-In . SVG Version: 6.00 Build 0)  -->
<svg version="1.1" id="Layer_1" xmlns="http://www.w3.org/2000/svg" xmlns:xlink="http://www.w3.org/1999/xlink" x="0px" y="0px"
	 viewBox="0 0 43 41.5" style="enable-background:new 0 0 43 41.5;" xml:space="preserve">
<style type="text/css">
	.st0{fill:#2D2926;}
</style>
<g id="Group_1654" transform="translate(-23.103 -19.717)">
	<g id="Group_1628" transform="translate(20.29 19.717)">
		<g id="Group_1566" transform="translate(2.813)">
			<g id="Group_1565" transform="translate(0 16.203)">
				<path id="Path_877" class="st0" d="M21.7,18H10c-0.4,0-0.7,0.3-0.7,0.7c0,0.4,0.3,0.7,0.7,0.7h11.8c0.4,0,0.7-0.3,0.7-0.7
					C22.4,18.3,22.1,18,21.7,18z"/>
				<path id="Path_876" class="st0" d="M11.3,14.6H0.7c-0.4,0-0.7,0.3-0.7,0.7C0,15.7,0.3,16,0.7,16l0,0l10.6,0
					c0.4,0,0.7-0.3,0.7-0.7C12,14.9,11.7,14.6,11.3,14.6C11.3,14.6,11.3,14.6,11.3,14.6z"/>
				<path id="Path_878" class="st0" d="M13.6,11.4H6.8c-0.4,0-0.7,0.3-0.7,0.7s0.3,0.7,0.7,0.7l0,0h6.8c0.4,0,0.7-0.3,0.7-0.7
					C14.3,11.7,14,11.4,13.6,11.4C13.6,11.4,13.6,11.4,13.6,11.4z"/>
				<path id="Path_879" class="st0" d="M5.2,12c0-0.4-0.3-0.7-0.7-0.7c-0.4,0-0.7,0.3-0.7,0.7c0,0.2,0.1,0.4,0.2,0.5
					c0.3,0.3,0.7,0.3,1,0c0,0,0,0,0,0C5.1,12.3,5.2,12.1,5.2,12z"/>
			</g>
			<g id="Group_1564" transform="translate(10.187)">
				<g id="Group_1560">
					<path id="Path_871" class="st0" d="M17.1,36.5L17.1,36.5c-8.7,0-15.7-7-15.7-15.7c0-8.7,7-15.7,15.7-15.7
						c8.7,0,15.7,7,15.7,15.7C32.8,29.5,25.8,36.5,17.1,36.5z M17.1,6.4c-8,0-14.4,6.5-14.4,14.4s6.5,14.4,14.4,14.4
						s14.4-6.5,14.4-14.4c0,0,0,0,0,0C31.5,12.8,25,6.4,17.1,6.4L17.1,6.4z"/>
				</g>
				<g id="Group_1561" transform="translate(7.964 3.787)">
					<path id="Path_872" class="st0" d="M5.9,12.2c1.8,0,3.3-1.5,3.3-3.3c0-1.8-1.5-3.3-3.3-3.3c-1.8,0-3.3,1.5-3.3,3.3
						S4.1,12.2,5.9,12.2L5.9,12.2z M5.9,7.3c0.9,0,1.6,0.7,1.6,1.6c0,0.9-0.7,1.6-1.6,1.6S4.3,9.8,4.3,8.9l0,0C4.3,8,5,7.3,5.9,7.3z
						"/>
				</g>
				<g id="Group_1562" transform="translate(10.079 9.427)">
					<path id="Path_873" class="st0" d="M6.2,6.6C4.4,6.6,3,8,3,9.8c0,1.8,1.5,3.3,3.3,3.3c1.8,0,3.3-1.5,3.3-3.3S8,6.6,6.2,6.6
						L6.2,6.6z M6.2,11.5c-0.9,0-1.6-0.7-1.6-1.6c0-0.9,0.7-1.6,1.6-1.6s1.6,0.7,1.6,1.6l0,0C7.9,10.7,7.1,11.5,6.2,11.5z"/>
				</g>
				<g id="Group_1563" transform="translate(3.734 8.722)">
					<path id="Path_874" class="st0" d="M5.2,6.5C3.4,6.5,2,7.9,2,9.7C2,11.5,3.4,13,5.2,13c1.8,0,3.3-1.5,3.3-3.3S7,6.5,5.2,6.5
						L5.2,6.5z M5.2,11.4c-0.9,0-1.6-0.7-1.6-1.6c0-0.9,0.7-1.6,1.6-1.6s1.6,0.7,1.6,1.6l0,0C6.9,10.6,6.1,11.4,5.2,11.4z"/>
				</g>
			</g>
		</g>
	</g>
</g>
</svg>
