<svg id="Layer_1" data-name="Layer 1" xmlns="http://www.w3.org/2000/svg" viewBox="0 0 35.11 41.2"><defs><style>.cls-1{fill:#2d2926;}</style></defs><g id="Group_1655" data-name="Group 1655"><g id="Group_1635" data-name="Group 1635"><path id="Path_852" data-name="Path 852" class="cls-1" d="M23.69,22.38l4.94,4.77a.38.38,0,0,0,.55,0,.33.33,0,0,0,.11-.28.66.66,0,0,0-.12-.27l-4.94-4.78a.39.39,0,0,0-.55,0,.38.38,0,0,0,0,.52Z" transform="translate(-3.93 -0.17)"/><g id="Group_1597" data-name="Group 1597"><path id="Path_851" data-name="Path 851" class="cls-1" d="M30.79,22.49l1.93,2a.41.41,0,0,0,.56,0,.39.39,0,0,0,0-.55l0,0-1.94-2a.39.39,0,0,0-.55,0,.41.41,0,0,0,0,.56l0,0Z" transform="translate(-3.93 -0.17)"/><path id="Path_413" data-name="Path 413" class="cls-1" d="M34.12,26a.39.39,0,1,0,.56-.55.39.39,0,0,0-.67.27A.35.35,0,0,0,34.12,26Z" transform="translate(-3.93 -0.17)"/></g><path id="Path_943" data-name="Path 943" class="cls-1" d="M36.39,27.82a2.65,2.65,0,0,0-1.69.61L7.79,2.56l0-.57V1.63a1.5,1.5,0,0,0-3,0l-.84,38c0,.63.05,1.7.68,1.7H7.93c.63,0,.69-1.07.68-1.7l-.75-34L7.82,4,34.06,29.21a2.59,2.59,0,0,0-.33,1.27,2.66,2.66,0,1,0,2.66-2.66ZM5.24,36.32,6,1.66a.28.28,0,0,1,.31-.24.35.35,0,0,1,.14.06.25.25,0,0,1,.08.18l.77,34.66ZM36.39,31.9a1.42,1.42,0,1,1,1.42-1.42,1.41,1.41,0,0,1-1.42,1.42Z" transform="translate(-3.93 -0.17)"/></g></g></svg>