<svg id="Layer_1" data-name="Layer 1" xmlns="http://www.w3.org/2000/svg" viewBox="0 0 43.03 30.79"><title>Swimming</title><g id="Group_1667" data-name="Group 1667"><g id="Group_1585" data-name="Group 1585"><path id="Path_851" data-name="Path 851" d="M10.59,1.14l2.7.72a.39.39,0,0,1-.2.76l-2.7-.72a.39.39,0,0,1,.2-.76Z" transform="translate(0.02 -1.13)"/><path id="Path_852" data-name="Path 852" d="M10.95,2.87l6.64,1.78a.39.39,0,0,1,.09.72.75.75,0,0,1-.3,0L10.74,3.63a.39.39,0,1,1,.2-.76Z" transform="translate(0.02 -1.13)"/><path id="Path_413" data-name="Path 413" d="M15.29,2.42a.36.36,0,1,1-.28,0A.36.36,0,0,1,15.29,2.42Z" transform="translate(0.02 -1.13)"/></g><g id="Group_1584" data-name="Group 1584"><path id="Path_918" data-name="Path 918" d="M42.34,27.33a15.09,15.09,0,0,1-6.7-1.39,16.4,16.4,0,0,0-7.2-1.49,16.39,16.39,0,0,0-7.2,1.49,15.08,15.08,0,0,1-6.7,1.39,15.08,15.08,0,0,1-6.69-1.39,16.39,16.39,0,0,0-7.2-1.49.66.66,0,0,0-.66.66H0a.66.66,0,0,0,.66.66,15.08,15.08,0,0,1,6.7,1.39,16.39,16.39,0,0,0,7.2,1.49,16.4,16.4,0,0,0,7.2-1.49,15.1,15.1,0,0,1,6.7-1.39h.38a15.09,15.09,0,0,1,6.32,1.39,16.39,16.39,0,0,0,7.2,1.49A.66.66,0,0,0,43,28h0A.66.66,0,0,0,42.34,27.33Z" transform="translate(0.02 -1.13)"/><path id="Path_919" data-name="Path 919" d="M35.64,29.2a16.4,16.4,0,0,0-7.2-1.49,16.39,16.39,0,0,0-7.2,1.49,15.09,15.09,0,0,1-6.7,1.39A15.08,15.08,0,0,1,7.85,29.2a16.38,16.38,0,0,0-7.2-1.49.66.66,0,0,0-.66.66H0A.66.66,0,0,0,.65,29a15.08,15.08,0,0,1,6.7,1.39,16.39,16.39,0,0,0,7.2,1.49,16.39,16.39,0,0,0,7.2-1.49A15.1,15.1,0,0,1,28.44,29h.38a15.09,15.09,0,0,1,6.32,1.39,16.39,16.39,0,0,0,7.2,1.49.66.66,0,0,0,.66-.66h0a.66.66,0,0,0-.66-.66A15.1,15.1,0,0,1,35.64,29.2Z" transform="translate(0.02 -1.13)"/><path id="Path_920" data-name="Path 920" d="M.66,21.2a.66.66,0,0,0-.66.66H0a.66.66,0,0,0,.66.66,15.08,15.08,0,0,1,6.7,1.39,16.38,16.38,0,0,0,7.2,1.49,16.39,16.39,0,0,0,7.2-1.49,15.1,15.1,0,0,1,6.7-1.39,15.09,15.09,0,0,1,6.69,1.39,16.39,16.39,0,0,0,7.2,1.49.66.66,0,0,0,.66-.66h0a.66.66,0,0,0-.66-.66,15,15,0,0,1-6.56-1.33h0v0L33,18l.07,0a6.47,6.47,0,0,0,4.35-3.62l0,0a.08.08,0,0,1,0,0A6.41,6.41,0,0,0,26,8.65v0a6.34,6.34,0,0,0-.76,2.24l0,.11-.86-.86a10,10,0,0,0-4.56-2.61l-7.89-2A3.17,3.17,0,0,0,8,7.75a3.18,3.18,0,0,0,2.26,3.89l8.39,2.18a1.78,1.78,0,0,1,.83.47,1.81,1.81,0,0,1,0,2.55L12.37,24h0a15.06,15.06,0,0,1-4.48-1.27A16.4,16.4,0,0,0,.66,21.2ZM27.58,8.64a5,5,0,0,1,4-1.92h0a5.07,5.07,0,0,1,4.9,6.37l0,.07L27.54,8.7ZM26.85,9.9l0-.06,9.07,4.53,0,.05a5.12,5.12,0,0,1-4.35,2.46h0a5.08,5.08,0,0,1-4.7-7Zm-6.42,7.89a3.14,3.14,0,0,0,0-4.44A3.09,3.09,0,0,0,19,12.54l-8.39-2.18a1.85,1.85,0,1,1,1-3.57l7.89,2a8.68,8.68,0,0,1,4,2.26l1.84,1.84v0a6.43,6.43,0,0,0,6.26,5.26h0l0,0L33.76,22l-.14,0a16.37,16.37,0,0,0-5.18-.72,16.39,16.39,0,0,0-7.2,1.49,15.1,15.1,0,0,1-6.32,1.39h-.78Z" transform="translate(0.02 -1.13)"/><path id="Path_921" data-name="Path 921" d="M4.78,13.19a2,2,0,1,0,2,2A2,2,0,0,0,4.78,13.19Zm0,2.94a.94.94,0,1,1,.94-.94A.94.94,0,0,1,4.78,16.13Z" transform="translate(0.02 -1.13)"/><path id="Path_922" data-name="Path 922" d="M7.55,19a.66.66,0,1,0,.66.66A.66.66,0,0,0,7.55,19Z" transform="translate(0.02 -1.13)"/><path id="Path_923" data-name="Path 923" d="M22.47,18.74l.72.72a.66.66,0,0,0,.94-.94l-.72-.72a.66.66,0,1,0-.94.94Z" transform="translate(0.02 -1.13)"/></g></g></svg>