<svg id="Layer_1" data-name="Layer 1" xmlns="http://www.w3.org/2000/svg" viewBox="0 0 42.98 38.02"><defs><style>.cls-1{fill:#2d2926;}</style></defs><g id="Group_1651" data-name="Group 1651"><g id="Group_1617" data-name="Group 1617"><g id="Group_1572" data-name="Group 1572"><path id="Path_851" data-name="Path 851" class="cls-1" d="M1.69,21.86.72,25a.47.47,0,0,0,.9.27l1-3.17a.47.47,0,0,0-.31-.59.49.49,0,0,0-.59.31Z" transform="translate(0 -1.76)"/><path id="Path_852" data-name="Path 852" class="cls-1" d="M3.21,23.31.82,31.13a.45.45,0,0,0,.31.58.45.45,0,0,0,.36,0,.85.85,0,0,0,.22-.28l2.4-7.82a.47.47,0,0,0-.9-.27Z" transform="translate(0 -1.76)"/><path id="Path_413" data-name="Path 413" class="cls-1" d="M0,27.41a.43.43,0,1,0,.83.25.47.47,0,0,0,0-.33.44.44,0,0,0-.59-.18A.45.45,0,0,0,0,27.41Z" transform="translate(0 -1.76)"/></g><g id="Group_1573" data-name="Group 1573"><path id="Path_851-2" data-name="Path 851-2" class="cls-1" d="M41.29,26.09l1,3.17a.47.47,0,0,1-.9.28l-1-3.18a.47.47,0,0,1,.9-.27Z" transform="translate(0 -1.76)"/><path id="Path_852-2" data-name="Path 852-2" class="cls-1" d="M39.77,27.53l2.39,7.82a.47.47,0,0,1-.31.59.47.47,0,0,1-.35,0,.74.74,0,0,1-.23-.27L38.88,27.8a.47.47,0,1,1,.89-.27Z" transform="translate(0 -1.76)"/><path id="Path_413-2" data-name="Path 413-2" class="cls-1" d="M43,31.63a.43.43,0,0,1-.28.54.44.44,0,0,1-.55-.29.44.44,0,0,1,.62-.51A.45.45,0,0,1,43,31.63Z" transform="translate(0 -1.76)"/></g><g id="Group_1571" data-name="Group 1571"><path id="Path_895" data-name="Path 895" class="cls-1" d="M40.2,36,34.85,18h0L33.52,8.68V5.73a4.17,4.17,0,0,0-4.37-4,4.18,4.18,0,0,0-4.37,4v3L23.46,18h0l-2.23,7.5L19,18l-.68-4.67c-.18-1.16-.35-2.33-.47-3.21-.06-.44-.12-.81-.15-1.06s0-.23,0-.3a.57.57,0,0,1,0-.13h0l0-2.92a4.19,4.19,0,0,0-4.37-4,4.19,4.19,0,0,0-4.37,4v3L7.6,18h0L2.25,36a.6.6,0,0,0,.55.76c3,.14,5.12,1,6.55,2.78a.59.59,0,0,0,.75.14,6.14,6.14,0,0,1,6.4,0,.59.59,0,0,0,.77-.16A6.93,6.93,0,0,1,20.59,37h.07a7.43,7.43,0,0,1,4.55,2.54.6.6,0,0,0,.75.14,6.14,6.14,0,0,1,6.4,0,.59.59,0,0,0,.77-.16,6.47,6.47,0,0,1,6.43-2.76.6.6,0,0,0,.53-.21A.59.59,0,0,0,40.2,36ZM26,5.73A3,3,0,0,1,29.15,3a3,3,0,0,1,3.18,2.76V9.92a3,3,0,0,1-3.18,2.77A3,3,0,0,1,26,9.92Zm-15.86,0A3,3,0,0,1,13.29,3a3,3,0,0,1,3.17,2.76V9.92a3,3,0,0,1-3.17,2.77,3,3,0,0,1-3.17-2.77ZM22.74,35.5a7.34,7.34,0,0,0-5.25,2l-.23.21-.56-6.49c-.35-4.17-.73-8.49-.73-8.51a.57.57,0,0,0-.21-.4.55.55,0,0,0-.44-.14.57.57,0,0,0-.4.21.55.55,0,0,0-.14.44L16.1,38.17l-.22-.08a7.1,7.1,0,0,0-5.17,0l-.22.08,1.32-15.34a.6.6,0,0,0-.54-.65h0a.6.6,0,0,0-.65.54h0l-1.3,15.1-.22-.17a10.06,10.06,0,0,0-5.31-2l-.18,0,.05-.17c0-.17,5-16.8,5.12-17.24l.87-6.1.21.25a4.51,4.51,0,0,0,3.44,1.51,4.49,4.49,0,0,0,3.43-1.51l.22-.25.86,6.1c.12.44,5,16.92,5.08,17.09l.06.19Zm15.86,0a7.34,7.34,0,0,0-5.25,2l-.23.21,0-.3c-.13-1.51-1.27-14.69-1.27-14.7a.57.57,0,0,0-.21-.4.59.59,0,0,0-.44-.14.62.62,0,0,0-.54.65L32,38.17l-.22-.08a7.1,7.1,0,0,0-5.17,0l-.22.08,1.32-15.34a.6.6,0,0,0-.53-.65h0a.6.6,0,0,0-.65.54h0l-1.3,15.1L25,37.65A6.29,6.29,0,0,0,24,37l-.25-.15.26-.12a.6.6,0,0,0,.33-.71l-2.49-8.38,2.77-9.31s0-.06,0-.09l.87-6.11.21.25a4.66,4.66,0,0,0,6.87,0l.22-.25.87,6.11a.29.29,0,0,0,0,.09L38.81,35.5Z" transform="translate(0 -1.76)"/><path id="Path_896" data-name="Path 896" class="cls-1" d="M31,20.39a.63.63,0,0,0,.55-.65.62.62,0,0,0-.2-.38h0a.59.59,0,0,0-.4-.16h-.05a.58.58,0,0,0-.54.64h0a.56.56,0,0,0,.22.41A.6.6,0,0,0,31,20.39Z" transform="translate(0 -1.76)"/><path id="Path_897" data-name="Path 897" class="cls-1" d="M26.9,20.19a.57.57,0,0,0,.44.2.6.6,0,0,0,.59-.55.59.59,0,0,0-.54-.64h-.05a.61.61,0,0,0-.39.15.57.57,0,0,0-.21.4A.61.61,0,0,0,26.9,20.19Z" transform="translate(0 -1.76)"/><path id="Path_898" data-name="Path 898" class="cls-1" d="M14.52,19.84a.61.61,0,0,0,.65.55h0a.62.62,0,0,0,.4-.22.53.53,0,0,0,.14-.43.6.6,0,0,0-.64-.54.59.59,0,0,0-.55.64Z" transform="translate(0 -1.76)"/><path id="Path_899" data-name="Path 899" class="cls-1" d="M11,20.19a.57.57,0,0,0,.44.2.6.6,0,0,0,.59-.55.59.59,0,0,0-.54-.64h0a.7.7,0,0,0-.39.15.57.57,0,0,0-.21.4A.61.61,0,0,0,11,20.19Z" transform="translate(0 -1.76)"/></g></g></g></svg>