<?xml version="1.0" encoding="utf-8"?>
<!-- Generator: Adobe Illustrator 24.3.0, SVG Export Plug-In . SVG Version: 6.00 Build 0)  -->
<svg version="1.1" id="Layer_1" xmlns="http://www.w3.org/2000/svg" xmlns:xlink="http://www.w3.org/1999/xlink" x="0px" y="0px"
	 viewBox="0 0 43 41.5" style="enable-background:new 0 0 43 41.5;" xml:space="preserve">
<style type="text/css">
	.st0{fill:#2D2926;}
	.st1{clip-path:url(#SVGID_2_);}
	.st2{fill:#2D2926;stroke:#2D2926;stroke-width:0.1;}
</style>
<g id="Group_1645" transform="translate(-27 -19.905)">
	<g id="Group_1633" transform="translate(27 19.905)">
		<path id="Path_851" class="st0" d="M32.2,35.3h-4.4c-0.3,0-0.6,0.2-0.7,0.6c0,0.3,0.2,0.6,0.6,0.7c0,0,0,0,0.1,0l4.4,0
			c0.3,0,0.6-0.3,0.6-0.6C32.8,35.5,32.5,35.3,32.2,35.3z"/>
		<path id="Path_852" class="st0" d="M30.9,37.7H20.1c-0.3,0-0.6,0.3-0.6,0.6c0,0.2,0.1,0.3,0.2,0.4c0.1,0.1,0.3,0.2,0.4,0.2l10.9,0
			c0.3,0,0.6-0.3,0.6-0.6C31.5,38,31.3,37.8,30.9,37.7z"/>
		<path id="Path_413" class="st0" d="M24.5,35.3c-0.3,0-0.6,0.3-0.6,0.6s0.3,0.6,0.6,0.6s0.6-0.3,0.6-0.6c0-0.2-0.1-0.3-0.2-0.4
			C24.8,35.3,24.6,35.3,24.5,35.3z"/>
		<g id="Group_1545">
			<g>
				<defs>
					<rect id="SVGID_1_" x="1.3" y="0.4" width="40.3" height="40.7"/>
				</defs>
				<clipPath id="SVGID_2_">
					<use xlink:href="#SVGID_1_"  style="overflow:visible;"/>
				</clipPath>
				<g id="Group_1544" transform="translate(0 0)" class="st1">
					<path id="Path_849" class="st2" d="M22.1,31.6c8.6,0,15.6-6.9,15.6-15.5c0-8.6-6.9-15.6-15.5-15.6C13.6,0.5,6.6,7.4,6.6,16
						c0,2.7,0.7,5.4,2.1,7.8l-6.1,6.1C1,31.5,1,34,2.6,35.6c1.6,1.6,4.1,1.6,5.7,0l6.1-6.1C16.7,30.9,19.4,31.6,22.1,31.6L22.1,31.6
						z M12.1,6c5.5-5.5,14.5-5.5,20,0c5.5,5.5,5.5,14.5,0,20c-1.9,1.8-4.2,3.1-6.7,3.8L8.3,12.8C8.9,10.2,10.2,7.9,12.1,6L12.1,6z
						 M8,14.4l15.7,15.7c-2.9,0.3-5.8-0.2-8.4-1.6l2-2c0.3-0.3,0.3-0.7,0-1c0,0,0,0,0,0l-4.8-4.8c-0.3-0.3-0.7-0.3-1,0l-2,2
						C8.3,20.2,7.7,17.3,8,14.4L8,14.4z M7.3,34.6c-1,1.1-2.7,1.1-3.8,0.1c-1.1-1-1.1-2.7-0.1-3.8c0,0,0-0.1,0.1-0.1l8.6-8.6
						l3.8,3.8L7.3,34.6z"/>
					<path id="Path_850" class="st2" d="M36.9,31.6c-2.6,0-4.7,2.1-4.7,4.7c0,2.6,2.1,4.7,4.7,4.7c2.6,0,4.7-2.1,4.7-4.7
						c0,0,0,0,0,0C41.7,33.7,39.6,31.6,36.9,31.6z M36.9,39.7c-1.9,0-3.4-1.5-3.4-3.4c0-1.9,1.5-3.4,3.4-3.4c1.9,0,3.4,1.5,3.4,3.4
						l0,0C40.3,38.1,38.8,39.7,36.9,39.7C36.9,39.7,36.9,39.7,36.9,39.7z"/>
				</g>
			</g>
		</g>
	</g>
</g>
</svg>
